<svg width="270" height="157" viewBox="0 0 270 157" fill="none" xmlns="http://www.w3.org/2000/svg">
<path d="M5.13281 96.1265L2.13281 89.6265L5.13281 83.1265L31.1328 75.1265L67.1328 66.6265M5.13281 83.1265H28.6328M5.13281 96.1265L12.1328 86.6265L31.1328 75.1265M31.1328 75.1265L28.6328 83.1265M117.633 58.1265H96.1328L67.1328 66.6265M67.1328 66.6265L76.1328 72.6265M67.1328 66.6265L52.1328 85.1265M96.1328 58.1265L76.1328 72.6265M117.633 58.1265L155.133 66.6265M117.633 58.1265L122.633 71.6265M117.633 58.1265L108.133 36.6265L121.133 21.1265L115.633 0.126465M117.633 58.1265L96.1328 74.1265M117.633 58.1265L76.1328 72.6265M155.133 66.6265L188.633 69.6265M155.133 66.6265L170.633 74.6265M155.133 66.6265L166.633 85.1265M155.133 66.6265L144.633 81.6265M155.133 66.6265L122.633 71.6265M188.633 69.6265L184.633 74.1265M211.133 74.1265L208.133 68.6265L202.133 65.1265L192.155 66.6265L188.633 69.6265M184.633 74.1265L190.633 80.1265M184.633 74.1265L166.633 85.1265M184.633 74.1265L170.633 74.6265M190.633 80.1265L196.633 71.6265M190.633 80.1265L202.133 81.1265M190.633 80.1265L166.633 85.1265M143.077 111.626L160.133 105.126L190.633 80.1265M190.633 80.1265L181.633 108.126M190.633 80.1265L203.633 98.1265M196.633 71.6265L192.155 66.6265M196.633 71.6265L208.133 68.6265M202.133 81.1265L203.633 98.1265M202.133 81.1265L211.133 74.1265M166.633 85.1265L170.633 74.6265M166.633 85.1265L160.133 105.126M166.633 85.1265L141.633 99.1265M166.633 85.1265L144.633 81.6265M181.633 108.126L160.633 105.126L141.633 99.1265M181.633 108.126L203.633 98.1265M197.133 115.126L182.165 108.367L181.633 108.126M141.633 99.1265L129.633 113.626M141.633 99.1265L126.48 90.1298M141.633 99.1265H119.133M144.633 123.126L143.633 111.126L141.633 99.1265M144.633 81.6265L125.633 89.6265M144.633 81.6265L122.633 71.6265M122.633 71.6265L96.1328 74.1265M122.633 71.6265L115.633 89.6265M122.633 71.6265L125.633 89.6265M96.1328 74.1265L76.1328 72.6265M96.1328 74.1265L102.133 96.2357M96.1328 74.1265L115.633 89.6265M76.1328 72.6265L52.1328 85.1265M76.1328 72.6265L85.1328 96.1265M76.1328 72.6265V95.1265M76.1328 72.6265L102.133 96.2357M52.1328 85.1265L28.6328 83.1265M52.1328 85.1265L57.6328 93.1265M52.1328 85.1265L46.6328 96.1265M52.1328 85.1265L76.1328 95.1265M85.1328 96.1265L76.1328 95.1265M85.1328 96.1265L96.1328 101.126L102.133 96.2357M76.1328 95.1265L103.133 111.626L119.133 117.626M76.1328 95.1265L57.6328 93.1265M28.6328 83.1265L14.6328 96.1265M28.6328 83.1265V91.6265M28.6328 83.1265L46.6328 96.1265M5.13281 96.1265H14.6328M206.133 132.626L208.133 141.626L183.133 153.126L144.633 156.126L105.133 153.126L41.1328 136.626L16.6328 120.126L0.632812 103.126L5.13281 96.1265M197.633 140.626L168.633 149.126L129.633 153.126L96.1328 149.126L44.6328 133.626L5.13281 96.1265M12.1328 86.6265L14.6328 96.1265M14.6328 96.1265L28.6328 91.6265M14.6328 96.1265L28.6328 98.1265M14.6328 96.1265L60.1328 133.626L117.633 149.126M28.6328 91.6265L46.6328 96.1265M168.633 144.126L140.633 143.126L112.133 138.626L68.6328 124.626L28.6328 98.1265M28.6328 98.1265L45.6501 96.2357M45.6501 96.2357L46.6328 96.1265L57.6328 93.1265M57.6328 93.1265L96.1328 116.126L117.633 123.126M211.133 74.1265L203.633 98.1265M211.133 74.1265L222.633 85.1265M211.133 74.1265L228.383 73.3765M228.383 73.3765L245.633 72.6265L248.633 92.1265M245.633 72.6265L223.682 84.5564M245.633 72.6265L236.633 103.126M247.633 125.626L250.133 127.626L268.633 113.626L263.633 103.126L248.633 92.1265M248.633 92.1265L236.633 103.126M263.633 103.126H236.633M268.633 113.626L236.633 103.126M247.633 125.626L206.133 132.626M247.633 125.626L236.633 103.126M247.633 125.626L222.633 117.626M206.133 132.626L173.633 123.126M206.133 132.626L222.633 117.626M206.133 132.626L197.133 115.126M208.133 141.626L197.633 140.626M208.133 141.626L173.633 123.126M187.633 138.626L168.633 144.126L117.633 149.126H96.1328M177.633 136.626L187.633 138.626L197.633 140.626M139.586 130.626L141.633 135.126L150.133 140.626L177.633 136.626M177.633 136.626L152.252 128.817M177.633 136.626L173.633 123.126M141.633 135.126L151.633 128.626M151.633 128.626H140.633M151.633 128.626L168.633 120.126M151.633 128.626L144.633 123.126M151.633 128.626L152.252 128.817M140.633 143.126L129.633 130.626M129.633 130.626H108.133L74.6328 117.626L45.6501 96.2357M129.633 130.626L117.633 123.126M129.633 130.626L139.586 128.817M117.633 123.126L119.133 117.626M140.633 128.626L139.586 128.817M140.633 128.626L144.633 123.126M144.633 123.126L139.586 128.817M144.633 123.126L168.633 120.126M144.633 123.126L133.633 120.126M168.633 120.126L173.633 123.126M168.633 120.126L143.077 111.626M168.633 120.126L169.342 120.002M173.633 123.126L152.252 128.817M222.633 85.1265L203.633 98.1265M222.633 85.1265L223.682 84.5564M222.633 85.1265L236.633 103.126M222.633 85.1265V117.626M203.633 98.1265L197.133 115.126M203.633 98.1265L222.633 117.626M197.133 115.126L222.633 117.626M197.133 115.126L169.342 120.002M222.633 117.626L236.633 103.126M228.383 73.3765L223.682 84.5564M102.133 96.2357L115.633 89.6265M102.133 96.2357L119.133 99.1265M115.633 89.6265H125.633M115.633 89.6265L119.133 99.1265M125.633 89.6265L126.48 90.1298M129.633 113.626L105.133 108.126L104.898 107.342L102.133 98.1265M129.633 113.626L119.133 99.1265M129.633 113.626L133.633 120.126M119.133 99.1265L126.48 90.1298M119.133 99.1265L104.898 107.342M133.633 120.126L119.133 117.626M143.633 111.126L143.077 111.626L133.633 120.126M169.342 120.002L160.133 105.626M169.342 120.002L182.165 108.367" stroke="black"/>
</svg>
