<svg width="271" height="159" viewBox="0 0 271 159" fill="none" xmlns="http://www.w3.org/2000/svg">
<path d="M13.5 149.497L8 151.997L0.5 149.497V119.497L8 107.997L13.5 109.497M0.5 119.497L14.5 115.997M10 144.497L5.5 135.997L0.5 119.497M0.5 149.497L10 144.497M13.5 149.497L30.5 157.497L48 144.497L33.5 135.997L48 128.497M13.5 109.497L26.5 111.997L35 114.997L21 125.497L13.5 138.997V149.497M13.5 149.497L10 144.497M35 114.997L23.5 117.497L14.5 115.997M14.5 115.997L26.5 111.997M14.5 115.997L13.5 109.497M14.5 115.997L10 144.497M14.5 115.997L5.5 135.997" stroke="black"/>
<path d="M228.5 112.997V118.997L200 123.997L167 115.497L139 103.997L136.5 94.4966L177 86.9966L181 89.9966L200 105.497M167 115.497L136.5 94.4966M167 115.497L165.5 98.4966M167 115.497L173.5 110.497M136.5 94.4966L165.5 98.4966M165.5 98.4966L177 86.9966M165.5 98.4966L200 105.497M165.5 98.4966L173.5 110.497M200 123.997L173.5 110.497M228.5 118.997L173.5 110.497M228.5 112.997L235 95.9966H258L264 86.9966L270 98.4966M228.5 112.997L200 105.497M228.5 112.997L173.5 110.497M200 105.497L173.5 110.497" stroke="black"/>
<path d="M146 17.9966L132.5 19.9966L122 28.4966L132.5 26.9966M132.5 19.9966V26.9966M132.5 26.9966L146 17.9966M169.5 0.496582L152.5 2.49658L146 17.9966L138.5 30.9966L132.5 26.9966" stroke="black"/>
</svg>
