<svg width="206" height="131" viewBox="0 0 206 131" fill="none" xmlns="http://www.w3.org/2000/svg">
<path d="M142.062 51.874L133.062 77.374L123.562 100.874L106.062 129.874L101.062 119.374M101.062 119.374L123.562 100.874M103.562 74.374L82.5625 90.374L86.5625 108.374L86.568 108.378L101.062 119.374M86.5625 108.374L123.562 102.374M86.5625 108.374L100.062 89.874M103.562 74.374L117.062 54.874M103.562 74.374L100.062 89.874M103.562 74.374L118.562 67.874M103.562 74.374L117.062 86.874M117.062 54.874L115.062 46.874M117.062 54.874L130.562 53.874M82.5625 19.374L94.5625 35.374L101.062 42.374L115.062 46.874M115.062 46.874L128.562 37.874M115.062 46.874L122.562 22.874M101.062 42.374L122.562 22.874M94.5625 35.374L96.5625 16.874M94.5625 35.374L122.562 22.874M82.5625 19.374L63.5625 16.874M82.5625 19.374L96.5625 16.874M82.5625 19.374L84.0625 9.87402M114.062 9.87402L96.5625 3.37402L73.5625 7.37402L63.5625 16.874L51.0625 29.374L31.5625 32.874L20.0625 19.374L0.0625 21.874M144.562 21.874L136.062 19.374L133.062 12.874L114.062 9.87402M114.062 9.87402H84.0625M114.062 9.87402L96.5625 16.874M133.062 12.874L96.5625 16.874M133.062 12.874L122.562 22.874M128.562 37.874L144.562 21.874L149.062 16.874L150.562 16.2218L160.562 11.874L185.562 9.87402M144.562 21.874L122.562 22.874M160.562 11.874L162.562 30.374M160.562 11.874L161.222 12.874M149.062 46.874L163.062 49.374L185.562 42.374L201.062 19.374L205.062 0.874023L185.562 9.87402M185.562 9.87402V21.874M205.062 0.874023L185.562 21.874M201.062 19.374L185.562 21.874M185.562 42.374V21.874M185.562 42.374L176.062 35.374M163.062 49.374L176.062 35.374M163.062 49.374L162.562 30.374M149.062 46.874L142.062 51.874M149.062 46.874L162.562 30.374M149.062 46.874L143.562 36.874M142.062 51.874L143.562 36.874M142.062 51.874L130.562 53.874M133.062 77.374L117.062 86.874M133.062 77.374L118.562 67.874M133.062 77.374L130.562 53.874M123.562 100.874L117.062 86.874M117.062 86.874L118.562 67.874M117.062 86.874L86.568 108.378M117.062 86.874L100.062 89.874M118.562 67.874L130.562 53.874M130.562 53.874L128.562 37.874M130.562 53.874L143.562 36.874M128.562 37.874L122.562 22.874M128.562 37.874L143.562 36.874M122.562 22.874L96.5625 16.874M96.5625 16.874L84.0625 9.87402M84.0625 9.87402L72.0625 7.37402M143.562 36.874L162.562 30.374M143.562 36.874L144.562 22.874M162.562 30.374L176.062 35.374M162.562 30.374L150.562 16.2218M176.062 35.374L185.562 21.874M176.062 35.374L161.222 12.874M185.562 21.874L161.222 12.874M100.062 89.874L84.0625 90.374" stroke="black"/>
</svg>
